PathFileType	4	(X/Y/Z)	39_2_79_p1_0-212_filt_butterworth.trc
DataRate	CameraRate	NumFrames	NumMarkers	Units	OrigDataRate	OrigDataStartFrame	OrigNumFrames
48.0	48.0	5	27	m	48.0	26	212
Frame#	Time	RHip			RKnee			RAnkle			RBigToe			RSmallToe			RHeel			LHip			LKnee			LAnkle			LBigToe			LSmallToe			LHeel			Neck			Head			Nose			RShoulder			RElbow			RWrist			RThumb			RIndex			RPinky			LShoulder			LElbow			LWrist			LThumb			LIndex			LPinky			
		X1	Y1	Z1	X2	Y2	Z2	X3	Y3	Z3	X4	Y4	Z4	X5	Y5	Z5	X6	Y6	Z6	X7	Y7	Z7	X8	Y8	Z8	X9	Y9	Z9	X10	Y10	Z10	X11	Y11	Z11	X12	Y12	Z12	X13	Y13	Z13	X14	Y14	Z14	X15	Y15	Z15	X16	Y16	Z16	X17	Y17	Z17	X18	Y18	Z18	X19	Y19	Z19	X20	Y20	Z20	X21	Y21	Z21	X22	Y22	Z22	X23	Y23	Z23	X24	Y24	Z24	X25	Y25	Z25	X26	Y26	Z26	X27	Y27	Z27	
26	0.5416666666666666	0.30744656392479097	0.6257813051225234	0.48461962603658	0.2658072027094858	0.746649719552267	0.923248554314884	0.23021228688313733	0.8611048562965393	1.3321368821921629	0.2105098355357677	0.6511438290774203	1.3460339624929578	0.2757723206914239	0.6866242573951353	1.3623056285448394	0.20293857840678164	0.9543033692861936	1.3935279068035216	0.0907773122449997	0.6339777120962153	0.46091841234270037	0.04822437891176043	0.75319764007398	0.8968703452661348	0.028735491593601267	0.8356781723606996	1.302426329758858	0.058408933697550944	0.6416925765611712	1.3250972203428397	0.00025063280858656086	0.6949760114867968	1.3364133252403652	0.041179960215901756	0.8724214336007536	1.3542650190603407	0.24889366691925863	0.5870689024159129	-0.06560763728028073	0.2612432917413361	0.5218855203107547	-0.2913439557588089	0.26144786594680713	0.42915899746340197	-0.16687658091892055	0.4101580780327444	0.6363842856261188	0.024340033322902355	0.4754449143870365	0.8145060102108337	0.2599765041700487	0.47901954588779494	0.6981489234781474	0.4649525988889529	0.39189409506086476	0.6792936964824154	0.5728573318911862	0.41637062819932447	0.6699195433045575	0.5910733528837909	0.4314162778313324	0.7058097036823727	0.5954751665817188	0.08062439803550767	0.6149524506251127	0.01828177289396897	-0.03185378829532106	0.5601946747643534	0.21897219955331584	-0.09643667258203213	0.34567402765195165	0.33623386087591445	-0.08595561972266638	0.2329990199177981	0.3912144403162445	-0.1150447906263912	0.1891511148245243	0.3858107750235079	-0.13783745098337796	0.27648917752704283	0.4121026881115617
27	0.5625	0.30892372094531556	0.637755952221008	0.48480089124133796	0.26742157462308114	0.7394551996424383	0.9206698418359502	0.230185237459344	0.8615348039411844	1.3311041512719415	0.21046897697417583	0.6510521190593672	1.345824805668551	0.2756446752719428	0.6863900769059668	1.3622907173279353	0.20291855239540466	0.9541510158899227	1.3932850684480762	0.08974100594138831	0.6322979928445615	0.46178680625701174	0.048226973987759936	0.7532970314869707	0.8964767213967122	0.02880788257935556	0.8364957642929409	1.3020809693551247	0.05840578237702668	0.6416550945761545	1.325069701763501	0.0002602904835850078	0.6949259133834539	1.336380289550106	0.04094836734213081	0.8721661848086717	1.3525947698201521	0.24895374674630072	0.5856605135979787	-0.06566109131840792	0.261483984552112	0.5217278488373385	-0.2913109875339943	0.26226404051052377	0.4264047439235532	-0.16675035705286012	0.4096656863735667	0.6350873211375545	0.020927385370705605	0.4811003820323303	0.8100408337694444	0.24062803531906787	0.5001140649216508	0.738195245420524	0.4514233056328302	0.4165873500328529	0.721200096201359	0.5702518050271146	0.43524265459493244	0.718302359332164	0.5864915272524287	0.4481244267174863	0.7640472586996498	0.5853926129721345	0.07993243117763194	0.6103248865706611	0.018394280622322758	-0.038500766971185985	0.5564542655256252	0.2083765050112566	-0.11935885719309544	0.3348406332826168	0.3032370307944145	-0.10985114577682195	0.21566106538152885	0.3482150894648237	-0.14041332821132513	0.1783527774748606	0.34281406434990236	-0.16654603190715875	0.24759176145406148	0.3647422219604579
28	0.5833333333333334	0.3114968999292892	0.6410304122717319	0.48321713591995474	0.2680031289221459	0.7350669018738084	0.9185899623772726	0.23023037572627447	0.8624034718548839	1.3296394505873588	0.21043726530294019	0.6508971068553107	1.3456383639419314	0.27566691297981194	0.6863346019723926	1.3622953954865835	0.20280329354100174	0.9533145341970461	1.391699605263542	0.09057543993616882	0.6294707136166448	0.4619447149527096	0.04824799535930099	0.7536474714891065	0.8957377480893569	0.02893924890081456	0.836406992993325	1.3002710109448357	0.05836408425636537	0.6417572458830645	1.3252683327374108	0.00020395298130887091	0.6950903681963756	1.3364639147897113	0.041046832995034005	0.8717558845347738	1.3485549886433592	0.24944746076413463	0.5787227919452013	-0.06571202912701098	0.26136101336754414	0.521591954398773	-0.29128699713275175	0.2631408177437755	0.42446212017008306	-0.16664906375875535	0.4097866935534629	0.6336140492935252	0.017762518402547216	0.4872050746392822	0.8009659876130772	0.22480920748523217	0.5208887525581036	0.7769295530787466	0.43214956950639494	0.4399194138560644	0.7694253103294897	0.5545962581440429	0.45723923663524724	0.764494302800057	0.5666603745476887	0.47162935281340124	0.827338213951835	0.5640816660364963	0.07923669753676058	0.6054037456298103	0.018231144667704702	-0.04835085298004695	0.5495614627342873	0.1984640500838466	-0.13901900849054794	0.3220446362704382	0.26306182904385783	-0.13436273116382605	0.20076565463017246	0.3001938984956777	-0.16600576076296247	0.17695690489372512	0.29497081800170116	-0.196657479541906	0.23036107306236303	0.31483889246345903
29	0.6041666666666666	0.31283601066107386	0.6335812180120772	0.48417347298193053	0.2677499589108203	0.7338365447107731	0.9180793021971698	0.23012949488593304	0.862777371664082	1.3277462195237701	0.21065606950093674	0.6509356244121862	1.3456083569196227	0.27577662670431324	0.6865885604200442	1.3622606164405395	0.2023147296450329	0.9520132634662121	1.3888078295097315	0.09199209685023765	0.6284780488094643	0.4623770287865732	0.048787820872301546	0.7529236756423954	0.8949965698195578	0.02904062447907107	0.8360001867204334	1.2986288547263447	0.058315692471265126	0.6418929188769563	1.3253948025531086	0.00012885875642282773	0.6953083129739731	1.336583814313858	0.04120843583689451	0.8717719529765108	1.3446149668963978	0.25022719918154745	0.5683702773350044	-0.06572573699925886	0.2604484469467325	0.5214629605818469	-0.29126933734467814	0.26325676013397015	0.4237920749017589	-0.16658536525950182	0.40998893567134004	0.6321476946000077	0.016183397034772885	0.4955007989375221	0.7850802979938526	0.21648639467241712	0.5433462109030376	0.8167475704238039	0.4186985337346193	0.46733592062945195	0.8311033768601319	0.5326563237785832	0.4842523491876805	0.8419450174242729	0.5437077515838631	0.5001641630775844	0.9065275604114373	0.5434769264461017	0.07861203150080076	0.602190076776982	0.017174821426789753	-0.06024362441667297	0.5355495076331972	0.18793060566052436	-0.15923006225063688	0.31274233682054564	0.21884937684960934	-0.1598739352118885	0.19592259007130264	0.2512166487679176	-0.1929572086385538	0.1771534226138507	0.24394311281985584	-0.22489584534057783	0.22694390946671963	0.26612953519556704
30	0.625	0.31193978972461817	0.6227549963447089	0.48744278503775623	0.26746142162498965	0.7345884807529763	0.9199620968726556	0.22940938795311602	0.8609899579181209	1.324949755156263	0.21142816899714084	0.6520260968984526	1.3464125973944823	0.275940981532309	0.6868501096386936	1.3621139881217168	0.2012135355708951	0.9510697846536731	1.3856885940573207	0.09254942527890853	0.628775507690071	0.46348513561145605	0.05068560398428739	0.7487850843137376	0.8939040960578754	0.029066825223306877	0.835761051088783	1.298161241564031	0.05829883328009893	0.6419755400950193	1.3254463338229152	8.742978999481176e-05	0.6954476441773257	1.3366748447469192	0.04133333204514834	0.8723923417598654	1.343618816592793	0.250764441340198	0.5613780351955777	-0.06573178481815907	0.25935760690993215	0.521372986868225	-0.29127330188760636	0.26356836122550764	0.42387957683799693	-0.1665374019223406	0.40970947940652674	0.6325289329923927	0.016023404578164924	0.5034439363008794	0.7635147315564711	0.21453531424641162	0.570278565678264	0.8537206771677859	0.41019274964426267	0.5138962671058234	0.8876913144165683	0.5112089853609545	0.5268394518076183	0.9386884215448577	0.5249594689613081	0.5384659475572265	0.9892426696847009	0.5274355671612124	0.07785594962334684	0.600173202184348	0.014715599368802948	-0.06993352985381662	0.5146299013363977	0.17343786837974293	-0.17989040647425245	0.311143239206862	0.17780197413154103	-0.1833043235416983	0.20643269655082722	0.20343685418883875	-0.217658507413935	0.17919140172931872	0.19197053263386754	-0.24285004345139471	0.2227108492815338	0.21756162147233193
